<svg width="71" height="70" viewBox="0 0 71 70" fill="none" xmlns="http://www.w3.org/2000/svg">
<path d="M67.1406 11.7188H12.4023C11.3957 11.7198 10.4305 12.1201 9.71866 12.8319C9.00682 13.5438 8.60647 14.5089 8.60547 15.5156V20.268H3.85938C2.85269 20.2691 1.88752 20.6694 1.17569 21.3812C0.463854 22.0931 0.0635052 23.0582 0.0625 24.0649V53.4844C0.0635052 54.4911 0.463854 55.4562 1.17569 56.1681C1.88752 56.8799 2.85269 57.2802 3.85938 57.2812H58.5977C59.6043 57.2802 60.5695 56.8799 61.2813 56.1681C61.9932 55.4562 62.3935 54.4911 62.3945 53.4844V48.732H67.1406C68.1473 48.7309 69.1125 48.3306 69.8243 47.6188C70.5361 46.9069 70.9365 45.9418 70.9375 44.9351V15.5156C70.9365 14.5089 70.5361 13.5438 69.8243 12.8319C69.1125 12.1201 68.1473 11.7198 67.1406 11.7188ZM49.813 22.7993C50.1037 25.3645 51.256 27.7552 53.0816 29.5806C54.9072 31.4059 57.298 32.558 59.8633 32.8484V44.6997C57.2979 44.9901 54.9069 46.1423 53.0812 47.968C51.2556 49.7936 50.1034 52.1846 49.813 54.75H12.6441C12.3536 52.1846 11.2014 49.7936 9.37579 47.968C7.55017 46.1423 5.15918 44.9901 2.59375 44.6997V32.8496C5.15918 32.5592 7.55017 31.407 9.37579 29.5813C11.2014 27.7557 12.3536 25.3647 12.6441 22.7993H49.813ZM59.8633 30.2918C57.9742 30.0161 56.2245 29.138 54.8746 27.788C53.5246 26.4381 52.6465 24.6884 52.3708 22.7993H58.5977C58.9332 22.7996 59.2549 22.9331 59.4922 23.1704C59.7295 23.4076 59.8629 23.7294 59.8633 24.0649V30.2918ZM3.85938 22.7993C3.94417 22.8056 9.82933 22.7942 9.90147 22.7993H10.0863C9.81056 24.6884 8.93243 26.4381 7.58247 27.788C6.23252 29.138 4.48286 30.0161 2.59375 30.2918V24.0649C2.59409 23.7294 2.72754 23.4076 2.96481 23.1704C3.20209 22.9331 3.52381 22.7996 3.85938 22.7993ZM2.59375 53.4844V47.2575C4.48286 47.5332 6.23252 48.4113 7.58247 49.7613C8.93243 51.1112 9.81056 52.8609 10.0863 54.75H3.85938C3.52381 54.7497 3.20209 54.6162 2.96481 54.3789C2.72754 54.1417 2.59409 53.8199 2.59375 53.4844ZM59.8633 53.4844C59.8629 53.8199 59.7295 54.1417 59.4922 54.3789C59.2549 54.6162 58.9332 54.7497 58.5977 54.75H52.3708C52.6463 52.8608 53.5243 51.111 54.8743 49.7611C56.2243 48.4111 57.9741 47.533 59.8633 47.2575V53.4844ZM68.4062 44.9351C68.4059 45.2706 68.2725 45.5924 68.0352 45.8296C67.7979 46.0669 67.4762 46.2004 67.1406 46.2007H62.3945V24.0649C62.3935 23.0582 61.9932 22.0931 61.2813 21.3812C60.5695 20.6694 59.6043 20.2691 58.5977 20.268H11.1367V15.5156C11.1371 15.1801 11.2705 14.8583 11.5078 14.6211C11.7451 14.3838 12.0668 14.2503 12.4023 14.25H67.1406C67.4762 14.2503 67.7979 14.3838 68.0352 14.6211C68.2725 14.8583 68.4059 15.1801 68.4062 15.5156V44.9351Z" fill="#D3001F"/>
<path d="M31.2294 43.7327C30.7397 43.7323 30.2702 43.5377 29.924 43.1915C29.5778 42.8452 29.3831 42.3758 29.3828 41.8861C29.3828 41.5505 29.2495 41.2285 29.0121 40.9912C28.7748 40.7538 28.4529 40.6205 28.1172 40.6205C27.7815 40.6205 27.4596 40.7538 27.2223 40.9912C26.9849 41.2285 26.8516 41.5505 26.8516 41.8861C26.8548 42.8228 27.1591 43.7337 27.7195 44.4843C28.2798 45.235 29.0666 45.7856 29.9637 46.0551C29.6688 48.4028 32.7861 48.4142 32.495 46.0551C33.4916 45.7461 34.3449 45.0908 34.9005 44.2076C35.4562 43.3244 35.6776 42.2715 35.5248 41.2393C35.3719 40.2071 34.8549 39.2637 34.0671 38.5794C33.2793 37.8951 32.2728 37.5152 31.2294 37.5083C30.8641 37.5083 30.507 37.4 30.2033 37.197C29.8997 36.9941 29.663 36.7056 29.5233 36.3681C29.3835 36.0306 29.347 35.6593 29.4184 35.3011C29.4897 34.9428 29.6657 34.6138 29.9241 34.3556C30.1825 34.0974 30.5116 33.9217 30.8699 33.8506C31.2282 33.7795 31.5995 33.8162 31.9369 33.9562C32.2743 34.0961 32.5626 34.333 32.7653 34.6368C32.9681 34.9406 33.0762 35.2978 33.0759 35.663C33.0759 35.9987 33.2092 36.3206 33.4466 36.558C33.6839 36.7953 34.0059 36.9287 34.3415 36.9287C34.6772 36.9287 34.9991 36.7953 35.2365 36.558C35.4738 36.3206 35.6072 35.9987 35.6072 35.663C35.6039 34.7263 35.2996 33.8155 34.7393 33.0648C34.1789 32.3142 33.3921 31.7635 32.495 31.4941C32.7899 29.1463 29.6726 29.135 29.9637 31.4941C28.968 31.8038 28.1159 32.4593 27.561 33.3422C27.0062 34.225 26.7852 35.2772 26.938 36.3087C27.0907 37.3402 27.6072 38.2831 28.3941 38.9673C29.1811 39.6514 30.1866 40.0317 31.2294 40.0396C31.7191 40.0396 32.1888 40.2341 32.5351 40.5804C32.8814 40.9267 33.0759 41.3964 33.0759 41.8861C33.0759 42.3759 32.8814 42.8455 32.5351 43.1918C32.1888 43.5381 31.7191 43.7327 31.2294 43.7327Z" fill="#D3001F"/>
<path d="M31.2266 52.063C34.7498 52.059 38.1276 50.6576 40.6189 48.1663C43.1102 45.675 44.5116 42.2972 44.5156 38.774C43.7854 21.1438 18.6652 21.1501 17.9375 38.774C17.9415 42.2972 19.3429 45.675 21.8342 48.1663C24.3255 50.6576 27.7033 52.059 31.2266 52.063ZM31.2266 28.0161C34.0787 28.0195 36.813 29.154 38.8298 31.1707C40.8465 33.1875 41.981 35.9218 41.9844 38.774C41.444 53.0262 21.0079 53.0224 20.4688 38.774C20.4721 35.9218 21.6066 33.1875 23.6233 31.1707C25.6401 29.154 28.3744 28.0195 31.2266 28.0161Z" fill="#D3001F"/>
</svg>
