<svg width="75" height="70" viewBox="0 0 75 70" fill="none" xmlns="http://www.w3.org/2000/svg">
<path d="M73.3591 22.3239C69.9039 22.198 66.5151 23.2961 63.7903 25.4246C61.0656 27.5531 59.1798 30.5752 58.4655 33.9582C58.0051 33.3597 57.5394 32.7802 57.0684 32.2197C56.2304 26.5847 53.5264 21.3937 49.3891 17.4774C45.2518 13.5611 39.9203 11.1458 34.2478 10.6182C28.5753 10.0906 22.8899 11.4811 18.1012 14.5672C13.3125 17.6533 9.69756 22.2566 7.83475 27.6403C5.00849 30.3961 2.54005 33.4963 0.487562 36.8682C0.372841 37.069 0.3125 37.2963 0.3125 37.5276C0.3125 37.7589 0.372841 37.9862 0.487562 38.187C2.38412 42.4237 19.2407 63.9925 39.3883 56.1047C39.7154 55.9739 39.9771 55.7184 40.1158 55.3946C40.2545 55.0709 40.259 54.7052 40.1281 54.3782C39.9973 54.0511 39.7418 53.7894 39.418 53.6507C39.0942 53.512 38.7286 53.5075 38.4016 53.6384C31.3625 56.5669 22.6699 54.6345 17.0294 51.1375C23.2503 38.0077 15.2709 43.3946 28.8696 44.2831C34.1744 44.2946 39.2671 42.2011 43.0301 38.4619C43.2775 38.2118 43.4163 37.8741 43.4163 37.5223C43.4163 37.1704 43.2775 36.8327 43.0301 36.5826C40.0717 33.6288 36.2607 31.6782 32.1346 31.0057C28.0085 30.3333 23.7754 30.973 20.0323 32.8346C19.5241 29.7161 18.5103 26.7015 17.0307 23.9096C21.8561 20.9358 27.514 19.6029 33.1594 20.1099C33.5062 20.1373 33.8498 20.0276 34.1165 19.8044C34.3833 19.5811 34.5518 19.2622 34.5859 18.9161C34.62 18.5699 34.5169 18.2242 34.2989 17.9533C34.0808 17.6823 33.7652 17.5077 33.4198 17.4669C26.0873 16.8276 18.7778 18.9264 12.9015 23.3585C15.2383 19.834 18.5097 17.0293 22.3497 15.2583C26.1898 13.4873 30.4469 12.8199 34.6447 13.3307C38.8425 13.8415 42.8153 15.5105 46.1185 18.1507C49.4217 20.791 51.925 24.2984 53.3483 28.2805C49.8029 24.91 45.7868 22.0723 41.4257 19.8562C40.504 19.3342 39.0842 18.6702 38.4905 19.9717C38.3471 20.293 38.3371 20.6581 38.4626 20.9868C38.5881 21.3155 38.8389 21.5809 39.1599 21.7249C46.6713 25.2307 53.1041 30.6884 57.7869 37.5282C55.6752 40.6099 53.1889 43.4173 50.3852 45.8861C48.3776 47.667 46.2332 49.2875 43.9717 50.7325C43.7213 50.9414 43.5522 51.2316 43.4939 51.5525C43.4357 51.8734 43.492 52.2046 43.653 52.4882C45.0605 54.3618 46.8864 55.8805 48.985 56.9232C51.0836 57.9659 53.3969 58.5038 55.7402 58.494C56.0925 58.494 56.4303 58.3541 56.6793 58.105C56.9284 57.8559 57.0684 57.5181 57.0684 57.1659C57.0727 53.39 55.6598 49.75 53.1092 46.9659C55.0675 45.1723 56.8606 43.2063 58.4669 41.0916C59.1551 44.3769 60.9518 47.3257 63.5558 49.4437C66.1598 51.5617 69.4128 52.7201 72.7694 52.7246C73.6859 52.8269 74.6713 52.4869 74.6873 51.3965C74.7916 48.4972 74.0343 45.632 72.511 43.163C70.9877 40.6939 68.7668 38.7317 66.1288 37.5243C68.6779 36.3631 70.8396 34.494 72.3569 32.1395C73.8741 29.7849 74.683 27.0441 74.6873 24.243C74.7869 23.3133 74.4482 22.3425 73.3591 22.3239ZM28.9121 33.3871C33.0263 33.3801 37.0068 34.8473 40.1321 37.5229C37.4198 39.8111 34.0724 41.2147 30.5393 41.5452C27.0062 41.8756 23.4565 41.1172 20.3669 39.3717C20.4454 38.1386 20.4454 36.9019 20.3669 35.6689C22.9659 34.1719 25.9128 33.3845 28.9121 33.3858V33.3871ZM14.7928 49.6965C10.2132 46.3879 6.28388 42.2622 3.20225 37.5269C6.2816 32.7883 10.2113 28.6605 14.7928 25.352C16.7435 29.1129 17.7618 33.2875 17.7618 37.5243C17.7618 41.761 16.7435 45.9356 14.7928 49.6965ZM46.7594 52.034C48.2807 51.0176 49.7448 49.918 51.1449 48.7403C52.9258 50.683 54.043 53.1415 54.3351 55.7607C51.4513 55.4443 48.7701 54.1254 46.7594 52.034ZM72.0071 50.0418C69.1076 49.8532 66.3758 48.6164 64.3211 46.5619C62.2664 44.5075 61.0292 41.7757 60.8402 38.8763C63.7395 39.0652 66.471 40.3022 68.5254 42.3566C70.5799 44.411 71.8182 47.1426 72.0071 50.0418ZM60.8402 36.1709C61.0291 33.2715 62.2661 30.5398 64.3204 28.4852C66.3748 26.4305 69.1064 25.1932 72.0058 25.004C71.8172 27.9035 70.5803 30.6354 68.5259 32.6901C66.4714 34.7448 63.7397 35.982 60.8402 36.1709Z" fill="#D3001F"/>
<path d="M10.3711 38.7236C10.7233 38.7236 11.0611 38.5837 11.3102 38.3346C11.5593 38.0856 11.6992 37.7477 11.6992 37.3955C11.6992 37.0433 11.5593 36.7055 11.3102 36.4564C11.0611 36.2073 10.7233 36.0674 10.3711 36.0674C10.0189 36.0674 9.68104 36.2073 9.43197 36.4564C9.1829 36.7055 9.04297 37.0433 9.04297 37.3955C9.04297 37.7477 9.1829 38.0856 9.43197 38.3346C9.68104 38.5837 10.0189 38.7236 10.3711 38.7236Z" fill="#D3001F"/>
</svg>
